<svg xmlns="http://www.w3.org/2000/svg" xmlns:xlink="http://www.w3.org/1999/xlink" width="43.007" height="44.723" viewBox="0 0 43.007 44.723"><defs><filter id="a" x="26.823" y="32.904" width="11.819" height="11.819" filterUnits="userSpaceOnUse"><feOffset input="SourceAlpha"/><feGaussianBlur stdDeviation="0.5" result="b"/><feFlood flood-opacity="0.102"/><feComposite operator="in" in2="b"/><feComposite in="SourceGraphic"/></filter></defs><g transform="translate(-10.059 -9.5)"><path d="M25.981,101.594l-7.115-.508a2.959,2.959,0,0,0-.586.039l-.9.117a2.764,2.764,0,0,1-2.815-1.407L10.655,92.6a.815.815,0,0,1,.313-1.095l.665-.352a.815.815,0,0,1,1.095.313l2.932,5.473a.815.815,0,0,1-.313,1.095h0a.769.769,0,0,1-1.016-.313l-1.29-2.5" transform="translate(0 -49.37)" fill="none" stroke="#262626" stroke-miterlimit="10" stroke-width="1"/><path d="M110,75.428V69.564A1.568,1.568,0,0,1,111.564,68h0a1.568,1.568,0,0,1,1.564,1.564v8.562a.826.826,0,0,1-.821.821h-.743a.826.826,0,0,1-.821-.821c.039-1.642.352-6.607.352-6.607a.434.434,0,0,1,.43-.43h0a.812.812,0,0,1,.821.743l.2,2.815" transform="translate(-60.562 -35.324)" fill="none" stroke="#f35" stroke-miterlimit="10" stroke-width="1"/><g transform="translate(35.677 10.977)"><path d="M80,17v6.842a.968.968,0,0,0,.977.977h.782a.968.968,0,0,0,.977-.977v-3.01" transform="translate(-77.967 -15.241)" fill="none" stroke="#f35" stroke-miterlimit="10" stroke-width="1"/><line y1="5.591" transform="translate(4.77)" fill="none" stroke="#f35" stroke-miterlimit="10" stroke-width="1"/><path d="M83.323,16.915a.963.963,0,0,0-1.29-.547L74.8,19.534" transform="translate(-74.8 -14.804)" fill="none" stroke="#f35" stroke-miterlimit="10" stroke-width="1"/></g><g transform="translate(20.117 13.128)"><g transform="translate(0 0)"><path d="M82.624,22.077l-3.558,1.877L76.25,18.448Z" transform="translate(-59.949 -18.05)" fill="#f35" stroke="#707070" stroke-width="1"/><path d="M57.676,22.027V53.968H35V19.877l3.988,3.988a1.134,1.134,0,0,0,1.642,0l.391-.391a1.555,1.555,0,0,0,.117-2.072L38.519,18H51.029l3.128,5.9Z" transform="translate(-35 -18)" fill="#f35" stroke="#707070" stroke-width="1"/><path d="M41.177,21.4a1.6,1.6,0,0,1-.117,2.072l-.391.391a1.134,1.134,0,0,1-1.642,0L35,19.877V18h3.519Z" transform="translate(-35 -18)" fill="#f35" stroke="#707070" stroke-width="1"/></g><g transform="translate(0 0)"><path d="M38.519,18l2.659,3.4a1.6,1.6,0,0,1-.117,2.072l-.391.391a1.134,1.134,0,0,1-1.642,0L35,19.877" transform="translate(-35 -18)" fill="none" stroke="#eee" stroke-miterlimit="10" stroke-width="1"/><path d="M50.99,18H35V53.968H57.676V22.027" transform="translate(-35 -18)" fill="none" stroke="#262626" stroke-linejoin="round" stroke-miterlimit="10" stroke-width="2"/><path d="M82.585,22.027,79.028,23.9,75.9,18Z" transform="translate(-59.91 -18)" fill="none" stroke="#262626" stroke-linejoin="round" stroke-miterlimit="10" stroke-width="2"/></g></g><g transform="translate(25.981 25.638)"><line x2="13.684" fill="none" stroke="#262626" stroke-linejoin="round" stroke-miterlimit="10" stroke-width="2" stroke-dasharray="10 2 23"/><line x2="13.684" transform="translate(0 2.346)" stroke-dasharray="6 2 19 2" stroke="#262626" stroke-linejoin="round" stroke-miterlimit="10" stroke-width="2" fill="none"/><line x1="13.684" transform="translate(0 4.692)" stroke-dasharray="10 2 23" stroke="#262626" stroke-linejoin="round" stroke-miterlimit="10" stroke-width="2" fill="none"/><line x2="13.684" transform="translate(0 7.037)" stroke-dasharray="12 2 16 2" stroke="#262626" stroke-linejoin="round" stroke-miterlimit="10" stroke-width="2" fill="none"/><line x1="13.684" transform="translate(0 9.383)" stroke-dasharray="10 2 12 2" stroke="#262626" stroke-linejoin="round" stroke-miterlimit="10" stroke-width="2" fill="none"/><line x2="13.684" transform="translate(0 11.729)" stroke-dasharray="10 2 23" stroke="#262626" stroke-linejoin="round" stroke-miterlimit="10" stroke-width="2" fill="none"/><line x1="13.684" transform="translate(0 14.075)" stroke-dasharray="12 2 16 2" stroke="#262626" stroke-linejoin="round" stroke-miterlimit="10" stroke-width="2" fill="none"/><line x2="13.684" transform="translate(0 16.42)" stroke-dasharray="6 2 19 2" stroke="#262626" stroke-linejoin="round" stroke-miterlimit="10" stroke-width="2" fill="none"/><line x2="8.992" transform="translate(0 18.766)" fill="none" stroke="#262626" stroke-linejoin="round" stroke-miterlimit="10" stroke-width="2"/></g><g transform="matrix(1, 0, 0, 1, 10.06, 9.5)" filter="url(#a)"><path d="M90.78,102.418a2.065,2.065,0,0,0,.039-.508,3.91,3.91,0,1,0-3.91,3.91,3.558,3.558,0,0,0,0-7.115,2.887,2.887,0,0,0-2.893,2.893,2.661,2.661,0,0,0,2.659,2.659,2.033,2.033,0,1,0-1.994-2.346" transform="translate(-54.18 -63.1)" fill="none" stroke="#f7f7f7" stroke-miterlimit="10" stroke-width="1"/></g><g transform="translate(38.492 10)"><path d="M83.955,10.977A.968.968,0,0,0,82.977,10h0a.968.968,0,0,0-.977.977v4.066a1.58,1.58,0,0,0,2.189,1.447l3.284-1.447a.966.966,0,0,0,.508-1.251l-.274-.7" transform="translate(-82 -10)" fill="none" stroke="#f35" stroke-miterlimit="10" stroke-width="1"/></g><path d="M30.919,16.161l-2.385-2.385a.756.756,0,0,1,0-1.095l.547-.547a.756.756,0,0,1,1.095,0l4.692,4.692a.378.378,0,0,1,0,.547l-.508.508a.394.394,0,0,1-.586-.039L31.78,15.38" transform="translate(-10.803 -1.157)" fill="none" stroke="#f7f7f7" stroke-miterlimit="10" stroke-width="1"/><path d="M18.128,21.519v5.864a1.568,1.568,0,0,1-1.564,1.564h0A1.568,1.568,0,0,1,15,27.383v-8.21A1.152,1.152,0,0,1,16.173,18h0a1.152,1.152,0,0,1,1.173,1.173V25a.826.826,0,0,1-.821.821h0a.812.812,0,0,1-.821-.743l-.2-2.815" transform="translate(-2.703 -4.872)" fill="none" stroke="#262626" stroke-miterlimit="10" stroke-width="1"/></g></svg>