<svg xmlns="http://www.w3.org/2000/svg" width="32" height="32.001" viewBox="0 0 32 32.001"><defs><style>.a{fill:#f35;}.b{fill:#fff;}</style></defs><g transform="translate(-15.433 -14.519)"><path class="a" d="M31.433,14.519a16,16,0,1,0,16,16A16,16,0,0,0,31.433,14.519Zm0,29.738A13.738,13.738,0,1,1,45.17,30.519,13.738,13.738,0,0,1,31.433,44.257Z" transform="translate(0 0)"/><path class="a" d="M70.852,57.565A12.377,12.377,0,1,1,58.475,45.188,12.376,12.376,0,0,1,70.852,57.565Z" transform="translate(-27.043 -27.045)"/><g transform="translate(26.985 23.432)"><path class="b" d="M134.878,173.994a2.317,2.317,0,0,1-1.68.681,2.365,2.365,0,0,1-1.66-4.03,2.252,2.252,0,0,1,1.659-.691,2.28,2.28,0,0,1,1.675.705,2.3,2.3,0,0,1,.7,1.68A2.227,2.227,0,0,1,134.878,173.994Z" transform="translate(-128.766 -160.501)"/><path class="b" d="M120.264,97.43a1.847,1.847,0,0,0-.725.517,2.151,2.151,0,0,0-.128.935h-3.687v-.627A4.538,4.538,0,0,1,116,96.42a1.921,1.921,0,0,1,1.014-.919l.676-.3q.766-.339.765-.954a.849.849,0,0,0-.855-.856q-.974,0-.974,1.352H113.2a4.881,4.881,0,0,1,.835-2.952,4.4,4.4,0,0,1,1.6-1.342,4.474,4.474,0,0,1,2.038-.5,4.348,4.348,0,0,1,3.146,1.238,4.1,4.1,0,0,1,1.277,3.066A3.255,3.255,0,0,1,120.264,97.43Z" transform="translate(-113.198 -89.955)"/></g></g></svg>